<?xml version="1.0" encoding="UTF-8" standalone="no"?>
<!-- Created with Inkscape (http://www.inkscape.org/) -->

<svg
   width="1920"
   height="1080"
   viewBox="0 0 508 285.75"
   version="1.1"
   id="svg5"
   inkscape:version="1.1 (c68e22c387, 2021-05-23)"
   sodipodi:docname="bg-my-store.svg"
   xmlns:inkscape="http://www.inkscape.org/namespaces/inkscape"
   xmlns:sodipodi="http://sodipodi.sourceforge.net/DTD/sodipodi-0.dtd"
   xmlns:xlink="http://www.w3.org/1999/xlink"
   xmlns="http://www.w3.org/2000/svg"
   xmlns:svg="http://www.w3.org/2000/svg">
  <sodipodi:namedview
     id="namedview7"
     pagecolor="#ffffff"
     bordercolor="#cccccc"
     borderopacity="1"
     inkscape:pageshadow="0"
     inkscape:pageopacity="1"
     inkscape:pagecheckerboard="0"
     inkscape:document-units="px"
     showgrid="false"
     inkscape:zoom="0.32"
     inkscape:cx="1254.6875"
     inkscape:cy="310.9375"
     inkscape:window-width="1920"
     inkscape:window-height="1051"
     inkscape:window-x="-9"
     inkscape:window-y="-9"
     inkscape:window-maximized="1"
     inkscape:current-layer="g7938"
     units="px" />
  <defs
     id="defs2">
    <linearGradient
       inkscape:collect="always"
       id="linearGradient9361">
      <stop
         style="stop-color:#cae0e0;stop-opacity:1;"
         offset="0"
         id="stop9357" />
      <stop
         style="stop-color:#cae0e0;stop-opacity:0;"
         offset="1"
         id="stop9359" />
    </linearGradient>
    <radialGradient
       inkscape:collect="always"
       xlink:href="#linearGradient9361"
       id="radialGradient10133"
       cx="976.37421"
       cy="870.73602"
       fx="976.37421"
       fy="870.73602"
       r="1403.6543"
       gradientTransform="matrix(0.27178042,-0.1103193,0.11406215,0.10209788,-223.72628,220.61583)"
       gradientUnits="userSpaceOnUse" />
  </defs>
  <g
     inkscape:label="Layer 1"
     inkscape:groupmode="layer"
     id="layer1">
    <path
       style="fill:#000000;stroke-width:0.134431"
       id="path531"
       d="" />
    <path
       style="fill:#000000;stroke-width:0.134431"
       id="path493"
       d="" />
    <g
       id="g7938"
       transform="matrix(0.87815357,0,0,1.0615752,34.028245,-22.222574)">
      <path
         id="path9242"
         style="fill:url(#radialGradient10133);fill-opacity:1;stroke-width:0.161818"
         d="m 411.65905,21.543348 c -4.83131,-0.02006 -9.66308,0.06116 -14.42986,0.09104 -16.26719,0.786788 -32.06345,3.507697 -46.89091,7.576906 -18.39145,5.047295 -49.73277,17.129752 -59.41,20.583871 -10.29694,4.615459 -20.08913,9.713383 -28.11475,15.787635 -2.5801,1.952761 -5.07216,3.964504 -7.15835,6.121053 -4.92709,5.093237 -6.7303,9.055086 -9.95736,14.595569 -3.7113,7.511716 -6.28623,15.212898 -6.48504,23.073268 -0.11876,4.69433 0.42117,9.20213 2.66103,13.72691 1.10411,2.23044 2.88157,4.31907 4.32226,6.47859 6.20228,5.55513 8.57792,8.62803 17.98684,12.80353 5.02687,2.23084 10.68686,3.90094 16.22463,5.63741 5.65006,1.77168 11.31112,3.58518 17.30825,4.87746 0.76275,0.16436 1.54053,0.30483 2.30932,0.4596 l -38.22884,12.33315 c 0.41588,2.08593 0.97493,4.16322 1.24766,6.25773 0.26456,2.03156 0.3378,4.52325 0.14369,6.84223 l -4.21155,1.13809 c -1.2411,2.43692 -2.20417,4.90517 -2.56494,7.4569 -0.20742,1.44763 -0.51118,2.89131 -0.62243,4.34277 -0.053,0.69207 -0.0792,1.5312 -0.0997,2.3888 -2.93733,3.01442 -6.33959,5.59616 -10.54028,8.08265 -2.27157,1.34456 -9.25376,3.98155 -9.57391,4.54325 -11.5617,2.66665 -18.88307,4.4129 -33.11848,6.08081 -20.03438,2.34736 -40.81506,2.43216 -60.93812,0.45715 -5.9341,-0.58241 -11.73436,-1.5835 -17.60135,-2.37531 -11.70918,-2.42861 -17.31666,-3.0711 -27.554629,-7.06626 -6.337715,-2.47316 -11.820066,-5.59205 -15.686075,-9.5277 -4.271358,-4.34833 -4.198231,-6.50675 -5.696551,-11.36977 -0.09553,-2.08578 -0.397493,-4.17175 -0.286578,-6.25724 0.105078,-1.97576 0.603507,-3.93692 0.933415,-5.90364 1.267164,-7.55422 2.747989,-15.09598 3.795122,-22.6635 0.05423,-0.74403 1.053732,-14.44164 1.055128,-14.4822 0.325287,-9.47295 -0.09882,-7.55457 -0.884158,-17.21502 -1.265852,-15.57113 0.258834,-3.77074 -1.992612,-18.676021 -0.701337,-2.693692 -1.241333,-5.404332 -2.104151,-8.080925 -1.401931,-4.349021 -3.863119,-9.800439 -6.196435,-14.025056 -1.153396,-2.0883 -2.303149,-4.18526 -3.79675,-6.193687 C 62.511549,65.421405 59.597501,63.172685 55.525653,59.559894 51.085289,56.210478 48.079065,53.769934 43.09004,50.699149 40.931154,49.370338 38.593133,48.15145 36.311088,46.899653 34.098949,45.686204 32.007995,44.379967 29.608255,43.303825 25.532952,41.476291 21.940194,40.701304 17.392055,39.504821 15.614784,39.180699 13.864278,38.797368 12.06024,38.532372 7.2316879,37.823102 2.2448392,37.831353 -2.6358375,37.351103 l -44.5848575,19.52652 c 5.834479,-0.34264 11.751975,-0.721995 17.620883,-0.452484 1.864156,0.08561 3.708392,0.288109 5.562624,0.432117 7.356136,0.934119 14.3051386,2.636573 20.4467688,5.292154 3.73699491,1.61584 10.3167044,5.44869 13.3161071,7.478754 2.0493011,1.387014 3.8488761,2.900891 5.7734871,4.351359 5.442979,4.742124 10.440476,9.738862 14.177876,15.063267 1.450987,2.067118 2.679723,4.190343 3.843159,6.322513 3.367576,6.171597 3.828822,8.093357 6.281918,14.537167 2.068014,7.20959 3.313158,10.28564 3.91073,17.72051 0.240901,2.99724 0.130743,6.00255 -0.01098,9.00208 -0.237391,5.02416 -1.089886,11.40785 -2.250696,16.41336 -0.546455,2.35636 -1.357477,4.68784 -2.036168,7.03167 -1.957574,7.7519 -5.012677,15.44688 -5.855309,23.2924 -0.208771,1.94382 -0.406833,3.89591 -0.251979,5.84157 0.170232,2.13882 0.816712,4.25428 1.224878,6.3814 1.554962,5.40163 1.237873,7.44802 6.355599,12.23523 4.83351,4.52137 10.976071,7.4862 18.83599,10.00864 11.597811,3.72205 19.057715,4.36953 31.87325,6.38117 20.282677,2.60444 41.024017,3.45596 61.717247,2.6651 7.00512,-0.26773 14.01776,-0.65591 20.93119,-1.38765 14.5041,-1.53517 24.33377,-3.73617 38.10468,-6.41478 21.96992,-6.25973 24.52638,-6.85294 43.64331,-14.17522 0.16382,2.24726 0.34184,4.49511 0.70667,6.73328 0.98691,6.05444 2.6122,10.98922 4.34794,16.99419 1.16075,2.91596 1.91942,5.90098 3.48247,8.74786 2.38471,4.34349 8.58014,11.77178 13.06333,15.41588 2.91205,2.36705 6.26039,4.55759 9.91828,6.51268 5.96515,3.18824 19.98424,8.31806 26.44945,10.79486 10.15684,3.22092 19.92825,6.53744 30.64267,9.07225 13.95027,3.30036 30.20562,5.55609 45.13479,6.37945 4.72904,0.26082 9.48961,0.23294 14.23447,0.34942 9.72908,-0.30042 16.66,-0.32037 26.21944,-1.35329 3.8697,-0.41813 7.92483,-0.63796 11.46475,-1.66884 16.70596,-4.86509 32.81608,-10.44674 48.98245,-15.93436 3.20345,-1.0874 6.22987,-2.37435 9.07931,-3.77473 2.90839,-1.42934 5.42654,-3.12519 8.1398,-4.68777 6.03044,-4.48554 10.30495,-7.30433 15.08767,-12.44307 6.77692,-7.28139 11.47638,-16.44328 13.49236,-24.67095 0.78594,-3.2074 0.95993,-6.45867 1.43981,-9.68794 -0.20383,-3.37426 -0.0745,-6.76178 -0.61141,-10.12274 -1.07239,-6.71234 -3.53282,-14.08671 -7.52754,-20.40548 -2.03368,-3.21677 -4.26387,-6.43732 -7.39812,-9.31495 -7.23168,-6.63954 -14.08467,-8.85355 -24.44666,-13.52693 -5.59925,-1.06898 -11.06489,-2.43745 -16.79779,-3.20714 -10.9583,-1.47124 -29.79675,-2.15051 -40.65499,-2.67687 -7.73003,-0.37472 -15.47045,-0.67505 -23.19123,-1.11354 -23.26825,-1.32149 -24.18725,-1.58946 -47.20028,-3.64 -7.29438,-1.02459 -14.69497,-1.80573 -21.88332,-3.07366 -6.50059,-1.14662 -12.88659,-2.55071 -19.11321,-4.15751 -11.25085,-2.90331 -20.39752,-5.9494 -29.23502,-11.08685 -7.71783,-4.48652 -9.55597,-7.46848 -14.43841,-12.91911 -3.32887,-5.51752 -4.52399,-6.61107 -5.92899,-12.41756 -1.67658,-6.928862 -1.01628,-14.129533 1.47847,-20.957099 0.94372,-2.582637 2.38681,-5.089501 3.58021,-7.634325 4.57315,-6.814546 4.7748,-8.061458 11.42484,-14.232158 7.63532,-7.084927 17.78772,-12.945807 28.8825,-18.030671 8.03063,-1.977938 16.37259,-3.537342 24.88671,-4.476259 3.49219,-0.38511 7.04498,-0.532501 10.56755,-0.798719 3.39957,-0.05808 6.79862,-0.218439 10.19876,-0.174221 6.80603,0.08851 10.84544,0.460294 17.32615,1.329971 4.03012,0.540824 7.91693,1.219206 11.72894,2.177274 1.65169,0.415113 3.22612,0.933739 4.83927,1.400641 3.44479,1.274297 5.1167,1.779148 8.18782,3.359035 5.00802,2.576296 8.98683,5.804227 12.21661,9.239615 0.75046,0.862963 1.54417,1.712927 2.25151,2.589025 4.1281,5.112918 7.12623,10.556798 9.1025,16.110802 1.86841,5.876237 3.80531,11.858113 2.13959,17.843691 L 486.9802,76.53395 c -0.158,-0.347968 -0.29829,-0.699275 -0.47424,-1.044101 -0.99674,-1.953472 -1.50931,-2.604145 -2.49779,-4.742743 -1.66359,-3.599272 -2.8683,-7.284548 -4.2482,-10.92539 -1.94701,-4.717426 -3.57895,-9.51583 -6.36169,-14.092044 -1.55115,-2.550824 -2.33566,-3.331188 -4.3353,-5.745866 -4.5745,-4.587381 -10.06006,-8.962023 -17.34531,-12.112547 -1.52057,-0.657576 -3.16401,-1.205367 -4.74603,-1.807975 -4.22308,-1.206484 -6.90686,-2.101957 -11.46477,-2.868761 -7.74496,-1.302989 -15.79567,-1.617746 -23.84782,-1.651175 z M 302.65601,153.87959 c 13.10001,2.44392 26.9399,3.66891 40.3098,5.14934 23.32554,2.21838 46.90009,3.22143 70.3036,5.0561 9.96468,0.78116 27.0693,2.26424 37.01701,4.02009 5.16549,0.91174 10.05873,2.31132 15.08807,3.46701 4.22679,1.89982 8.85658,3.51122 12.68027,5.69948 3.69257,2.11321 6.87671,4.5582 9.70416,7.11069 6.48308,5.85262 10.01451,11.30828 12.55856,18.16711 3.13691,8.45723 2.38289,11.41106 2.41882,19.97384 -0.73302,3.18705 -1.12468,6.40938 -2.199,9.56106 -2.81163,8.24828 -8.64795,17.32885 -16.13996,24.45919 -5.23838,4.9855 -8.74314,7.07651 -14.6391,10.81522 -1.74008,0.41129 -3.39959,0.78589 -4.51116,0.95306 -12.08316,1.81714 -14.78025,1.69655 -27.21392,2.43346 -4.82026,0.0137 -9.64521,0.17024 -14.46078,0.0412 -21.25271,-0.56934 -42.49606,-3.69416 -61.89637,-8.94711 -5.13375,-1.39005 -10.00115,-3.11295 -15.00179,-4.66937 -4.43357,-1.80376 -9.04425,-3.45882 -13.30104,-5.41118 -11.5931,-5.31707 -20.58435,-11.28573 -27.01039,-19.21808 -4.44659,-5.48887 -6.04902,-9.99238 -8.77197,-15.85264 -2.63748,-8.13583 -4.13981,-16.4106 -3.30011,-24.70678 0.21876,-2.16152 0.67595,-4.31364 1.22243,-6.45453 3.55796,-2.83456 4.46238,-4.31452 7.62281,-8.11086 0.84947,-1.47271 1.92011,-2.90559 2.54827,-4.4181 0.7887,-1.89907 1.17722,-3.91154 1.2041,-5.90783 0.0781,-0.0582 0.15947,-0.11492 0.23611,-0.17372 l -0.2365,0.064 c 0.007,-1.02627 -0.0747,-2.04812 -0.25932,-3.04667 -0.68103,-3.68511 -2.26267,-6.61929 -3.9726,-10.05404 z m -47.16813,47.02379 c 6.34436,-2.00724 7.17385,-2.28705 -13.99307,4.48092 -0.49985,0.11271 -0.84261,0.19422 -1.32501,0.30378 4.22431,-1.28609 10.97252,-3.40986 15.31808,-4.7847 z m 202.86626,72.4402 c -3.17213,1.338 -12.7128,4.63643 -9.58366,3.41744 3.10932,-1.21126 6.34227,-2.31809 9.58366,-3.41744 z" />
    </g>
  </g>
</svg>
